<svg id="Layer_1" data-name="Layer 1" xmlns="http://www.w3.org/2000/svg" viewBox="0 0 547.35499 573.61795"><defs><style>.cls-1{opacity:0.5;}.cls-2{fill:#f2f2f2;fill-rule:evenodd;}.cls-3{fill:red;stroke:#c1272d;stroke-miterlimit:10;}</style></defs><title>australia</title><g class="cls-1"><path class="cls-2" d="M911.78336,444.15724c-5.00442,4.29441-4.98506,4.29441-8.02145-.60175-.57132-.92612-1.23866-1.79457-1.81749-2.70885-2.82422-4.51053-3.76971-10.36759-9.38773-12.85636-1.902-6.49-8.67766-11.18586-6.64806-19.25.88741-3.565-1.37734-5.69111-4.86534-7.28062-2.93643-1.34692-5.71831-2.93248-8.8978-3.78552a3.1041,3.1041,0,0,1-1.68631-2.38446c-.13868-4.98111-.949-9.754-3.407-14.12585-2.15688-3.81989-3.808-7.6781-3.974-12.19259a5.68616,5.68616,0,0,0-2.5429-3.93171c-7.96377-4.64171-14.02148-12.01913-22.66449-15.69244a6.593,6.593,0,0,1-3.78512-5.05855c-.71-4.22487-2.049-8.57341-1.62073-12.74455a25.11687,25.11687,0,0,0-3.90839-17.035,21.45108,21.45108,0,0,1-3.51526-13.88642c.21217-3.75035-.71-7.5975-.5247-11.35575.26636-5.34777-1.79813-9.35652-5.57535-12.95673-2.58913-2.5271-5.11624-3.5765-8.73581-2.75073a4.23185,4.23185,0,0,1-4.842-3.17942,23.12949,23.12949,0,0,1-.80648-4.78079c.19281-5.52912-1.58991-10.68407-2.67408-16.005-1.54723-7.48529-6.01549-13.89787-7.36952-21.44914-.20467-1.20389-2.12607-2.33429-3.492-3.00953-.69855-.36666-2.09525.14658-2.8669.68669a5.81744,5.81744,0,0,0-1.90994,2.51565c-1.94867,4.47616-2.76654,9.30278-4.85783,13.80186-1.987,4.30626-2.25725,9.37627-3.61167,14.018-2.307,7.844-4.02805,15.70746-3.32206,24.011a23.21742,23.21742,0,0,1-.96445,8.00249c-1.69777,6.27389-3.64249,12.50512-5.61407,18.70987a129.32478,129.32478,0,0,1-4.40662,12.2159c-1.37339,3.14426-4.20941,4.95029-7.56234,5.64094-5.19717,1.07271-9.75439-.21613-13.2578-4.27506a19.05247,19.05247,0,0,1-4.31377-8.14156c-.99172-.04623-1.987-.0889-2.97871-.16594-4.4564-.35481-8.477-1.44688-11.48252-5.23991-3.469-4.36355-8.63946-6.509-13.43921-8.94007a20.47459,20.47459,0,0,1-7.55483-5.9266,55.96665,55.96665,0,0,0-5.59115-5.89933c-2.1723-2.06443-3.08657-4.25214-1.84791-7.204,2.02926-4.97715,5.30509-9.46833,5.05815-15.29852-.07705-1.45083,1.57055-2.57767,3.245-3.21024,1.47809-.548,3.30664-1.28093,4.05932-2.51564a135.37579,135.37579,0,0,0,6.86023-12.89114c.27026-.552-.59819-2.04112-1.3271-2.66262-2.13753-1.76336-4.67654-3.10593-7.447-1.906-2.66223,1.18453-4.96215,1.76732-7.47384-.25444-1.49311-1.19639-3.00952-.07745-4.53384.4437-1.50457.51285-3.35288,1.50061-4.57613,1.0494-8.05622-3.06365-16.9307-3.878-24.30062-8.61608C661.246,230.68,657.13291,229.507,653.0159,228.23a6.86141,6.86141,0,0,0-3.13319.21218,2.05894,2.05894,0,0,0-1.26948.90281c-.22363.42079-.30107,1.3003-.04228,1.55909,1.501,1.51247,3.15611,2.83568,4.684,4.31733a3.31267,3.31267,0,0,1-.9605,5.43667c-3.52317,1.8329-7.24626,1.96407-11.09341,1.987-2.126.01936-4.49117-.03438-6.31617.81826-4.42559,2.0913-8.61608,4.76894-11.65643,8.74331-4.26359,5.54058-8.2917,11.30123-12.45883,16.93861a8.653,8.653,0,0,0-.957,9.15225c.80246,1.92535-1.73254,3.94316-4.00519,3.79263-3.21419-.18491-6.09254-2.54647-9.51891-1.26909-2.31092.86015-4.20946.01541-5.66029-1.85621-2.33429-2.99806-4.437-6.21976-6.95269-9.03648-2.25329-2.51169-5.10122-4.05893-8.71249-2.64286-3.488,1.37734-7.43156,2.14147-10.39486,4.26715a19.89577,19.89577,0,0,1-8.56551,3.91274c-4.65752.7831-3.92815,6.15417-6.74091,8.558-1.23866,1.09563-2.37691,2.55832-3.81594,2.99412-5.22054,1.62428-6.43589,5.232-5.79932,10.08983a13.83467,13.83467,0,0,1-.30468,3.22209,3.1906,3.1906,0,0,1-3.27227,2.80487c-1.62428-.0731-3.245-.36666-4.85783-.31253a3.96368,3.96368,0,0,0-3.58436,4.53384c.29707,2.12607.82578,4.22092,1.1343,6.347a2.08633,2.08633,0,0,1-.5978,1.42,1.676,1.676,0,0,1-2.66612-.21613c-1.66306-2.11461-3.09453-4.40623-4.71525-6.575-1.18058-1.54724-3.07512-1.90205-4.20947-.92218-2.49272,2.11856-5.04314,4.13242-7.43551,6.31656a7.11245,7.11245,0,0,0-2.70845,5.71443c.648,7.62437-2.16084,13.60075-7.767,18.65535-1.51292,1.37773-2.23438,3.67725-3.415,5.50225a22.30231,22.30231,0,0,1-17.43249,10.61453c-4.85783.47492-9.69236,1.37774-14.52727,2.10671-6.671,4.908-15.87736,3.46113-22.4061,8.89385a5.78682,5.78682,0,0,1-4.60694,1.0652c-5.83374-1.57845-10.52563.81-15.39532,3.40306-6.20831,3.29874-11.965,7.47383-18.70947,9.83143-3.20274,1.12645-5.10478,3.90839-6.976,6.62475-1.82144,2.63536-2.32679-.729-3.51131-.81787-.94549-.08495-2.36156.04623-2.81277.66733a16.62961,16.62961,0,0,0-3.11778,5.5872,38.84614,38.84614,0,0,0-.71752,8.06413c-.162,4.41808-.81826,8.65085-3.47259,12.37789-2.62,3.71953-3.34931,7.94836-3.26437,12.37434.11972,6.00364.30108,11.965,3.43783,17.40523a15.87008,15.87008,0,0,1,1.51646,4.6342,4.265,4.265,0,0,1-1.59351,4.26755c-.6946.63652-1.45873,1.2268-2.19951,1.79773-1.1265,2.22248-2.28021,4.426-3.39164,6.60184a.44342.44342,0,0,1-.17345-.03082v.34335l.25444-.26591c.12762,1.58951-.081,3.30665.47492,4.74562,1.38525,3.5848,2.65433,7.23875,2.27621,11.10882-.67879,6.733,1.33507,13.01836,3.42636,19.11841a58.67023,58.67023,0,0,1,2.87085,20.80867c-.19677,8.14552-.27776,16.32146,2.40383,24.2544a13.77646,13.77646,0,0,1,.23548,6.40507c-.68709,4.29442-1.77872,8.51929-2.66262,12.76a23.19211,23.19211,0,0,1-9.30278,14.74695c-4.18616,3.07511-4.20947,9.573-.87951,13.0879,2.24183,2.34219,4.87719,4.37936,6.84877,6.92582,3.26042,4.1905,7.62793,6.08109,12.58217,6.733a69.02871,69.02871,0,0,0,11.38662.552c2.10666-.05018,4.6302-.42079,6.21221-1.62073,7.33476-5.66425,17.75253-5.69506,24.01892-13.29217a4.87619,4.87619,0,0,1,2.94-1.26553c7.4893-.94154,14.85877-3.27583,22.5835-1.45083,6.3782,1.53539,12.96462,1.354,19.48156,1.17268a12.706,12.706,0,0,0,8.724-3.889c6.69424-6.737,12.15421-10.48335,21.76162-15.3724a46.34409,46.34409,0,0,0,6.94123-4.25174,14.33212,14.33212,0,0,1,10.69949-2.96725,48.74515,48.74515,0,0,0,28.52194-4.90011,44.814,44.814,0,0,1,22.0742-4.6263q8.17218.19083,16.306.33189a8.81648,8.81648,0,0,1,7.08782,3.43387c2.91312,3.66935,6.6287,4.94633,11.18586,5.76065,4.70335.81787,9.24865,3.00557,13.632,5.07,2.4382,1.16912,4.47932,3.7389,4.27505,6.46671-.2663,3.56544.409,6.3703,2.92063,8.83972a16.07421,16.07421,0,0,1,4.59943,10.2056c.386,3.78156.80246,7.55127,1.1269,11.35575.13863,1.601,0,3.2217.04222,4.81121a2.4826,2.4826,0,0,0,.40894,1.57806,15.51123,15.51123,0,0,0,3.71558,3.002,3.2982,3.2982,0,0,0,2.89777-.75229c4.49507-4.68793,8.68557-9.7042,13.29251-14.27638,2.28806-2.27265,5.50225-3.59981,7.87131-5.78,2.74322-2.5271,4.9736-5.5872,7.51255-8.34978a1.56476,1.56476,0,0,1,1.4584-.27776,1.86164,1.86164,0,0,1,.96439,1.25406c.40933,2.22643.23549,4.65712-1.277,6.15813a31.48641,31.48641,0,0,0-7.84049,14.12585c-1.42752,5.08146-4.11306,8.68167-8.82826,11.02347a3.76468,3.76468,0,0,0-1.47375,2.75113c-.07349.88741.53616,2.531,1.10749,2.63931,1.48164.33544,3.11739-.03477,4.68-.077,4.81556-.10431,8.35769-2.06838,10.206-6.69073a20.66509,20.66509,0,0,1,1.43892-2.93248,5.60224,5.60224,0,0,1,1.196-1.034c.56737.70211,1.53578,1.36984,1.63224,2.12607.56732,4.91157.56732,9.73464-2.94794,13.875a2.11314,2.11314,0,0,0,1.55118,3.43387c2.58914.20466,5.17827.23548,7.75555.31253-.01146-.12723-.02331-.2584-.04228-.36271l.75985-.78705-.35091,1.16912a2.30316,2.30316,0,0,1-.36666-.01936,4.25617,4.25617,0,0,0,.16989,1.2347c3.349,8.863,4.989,17.71421,1.22681,26.97076-.69815,1.73254.09641,4.30231.77559,6.28535.868,2.54686,2.48088,4.84638,3.46864,7.35056,3.006,7.83259,9.20243,12.0306,16.79993,13.96386a30.9902,30.9902,0,0,1,11.417,5.93015c2.14147,1.62468,3.89337,3.81238,6.04637,5.44457a5.67667,5.67667,0,0,0,6.12725.81392c6.76778-3.3916,13.92118-6.31618,17.67943-13.65883.49389-.99923,1.87129-.72937,2.65472.23548a2.07916,2.07916,0,0,1,.54807,1.36193c-.28177,1.57806-1.54729,3.78117-.93409,4.56467,3.69267,4.684,5.78,10.50627,10.39881,14.52687,1.18809,1.0419,3.33746,1.64009,4.31733.795,5.67965-5.074,12.38586-8.71249,18.09627-13.64737,5.69506-4.89656,12.21985-6.87209,19.53169-6.94518,2.70846-.02332,5.45958.07309,8.13366-.21613,4.4331-.50534,11.03888-6.10044,11.20483-10.54894.2663-7.27352,4.00519-13.45061,5.50976-20.33416a40.19609,40.19609,0,0,1,10.82716-19.77863c3.54562-3.56505,5.81077-7.85946,8.11819-12.15782,2.82817-5.26677,5.61012-10.5608,8.43434-15.843,4.66107-8.69313,10.01278-16.715,18.84506-21.8968,1.736-.99528,3.63057-2.94,4.07032-4.7883,1.77126-7.26166,8.87054-11.0855,11.05468-17.88765,2.157-6.69073,2.06048-14.014,5.2862-20.4191,3.89687-7.75555,5.33624-16.51032,10.26717-23.86838,1.424-2.13,1.91-5.02773,2.32678-7.65914a34.30563,34.30563,0,0,0-1.339-16.10533,18.01553,18.01553,0,0,1-.15448-11.20088,30.26091,30.26091,0,0,0,1.4856-7.94875,62.051,62.051,0,0,1,4.8116-22.1552,7.52913,7.52913,0,0,0,.7756-3.11383c-.03477-.791-.75268-1.55474-1.16161-2.33824A11.03634,11.03634,0,0,0,911.78336,444.15724Z" transform="translate(-366.89338 -225.01172)"/><path class="cls-2" d="M774.8853,741.34763c-5.30154,1.02253-10.7303,1.67446-15.86234,3.25646-4.80765,1.48165-8.44579.10431-12.00333-2.77048-2.52355-2.03322-4.95069-4.23673-7.64373-6.0076a9.562,9.562,0,0,0-4.53741-1.03c-1.57054-.05413-3.40338,2.59664-3.61957,4.79225-.10385,1.07232-.25839,2.13357-.30067,3.23315-.51324,9.66944,1.41962,19.55106-2.25724,28.95775-.1699.49783-.00791,1.08812-.00791,4.22132.53656,2.80881,1.75191,8.07953,2.55832,13.41979.89142,5.87642,4.99657,7.94835,10.01279,9.044a4.34335,4.34335,0,0,0,3.07906-.23508,32.15508,32.15508,0,0,0,6.23128-5.08186c2.40377-2.81277,5.07785-3.53423,8.63539-2.99807a4.50484,4.50484,0,0,0,4.95424-3.32956c2.0834-6.70614,3.77722-13.54741,9.31424-18.52852.6946-.633.876-1.93326,1.16912-3.002,1.49311-5.17392,2.93254-10.39446,4.36-15.62646.2663-1.04189.33584-2.12607.50178-3.20273C779.97071,743.49661,777.60561,740.819,774.8853,741.34763Z" transform="translate(-366.89338 -225.01172)"/></g><circle id="point-10" class="cls-3" cx="11" cy="368" r="5.5"/><circle id="point-9" class="cls-3" cx="469" cy="414" r="5.5"/><circle id="point-8" class="cls-3" cx="6" cy="356" r="5.5"/><circle id="point-7" class="cls-3" cx="485" cy="383" r="5.5"/><circle id="point-6" class="cls-3" cx="418" cy="472" r="5.5"/><circle id="point-5" class="cls-3" cx="17" cy="329" r="5.5"/><circle id="point-4" class="cls-3" cx="496" cy="367" r="5.5"/><circle id="point-3" class="cls-3" cx="480" cy="403" r="5.5"/><circle id="point-2" class="cls-3" cx="27" cy="374" r="5.5"/><circle id="point-1" class="cls-3" cx="407" cy="547" r="5.5"/></svg>