<?xml version="1.0" encoding="utf-8"?>
<!-- Generator: Adobe Illustrator 22.1.0, SVG Export Plug-In . SVG Version: 6.00 Build 0)  -->
<svg version="1.1" id="Layer_1" xmlns="http://www.w3.org/2000/svg" xmlns:xlink="http://www.w3.org/1999/xlink" x="0px" y="0px"
	 viewBox="0 0 1280 1024" style="enable-background:new 0 0 1280 1024;" xml:space="preserve">
<style type="text/css">
	.st0{fill:#FFFFFF;}
	.st1{fill:#FFFFFF;stroke:#000000;stroke-width:30;stroke-linecap:round;stroke-linejoin:round;stroke-miterlimit:10;}
	.st2{fill:#FFFFFF;stroke:#000000;stroke-width:25;stroke-linecap:round;stroke-linejoin:round;stroke-miterlimit:10;}
</style>
<g>
	<path class="st0" d="M640,442.4c38.4,2.7,74.8,15.9,103.9,37.6c31.3,23.4,52.1,55.2,58.8,89.9c-6.8,34.7-27.6,66.5-58.8,89.9
		c-29.1,21.8-65.5,34.9-103.9,37.6V442.4z"/>
	<path d="M655,459.2c29.5,4.6,57.2,15.9,79.9,32.9c27.4,20.5,45.9,48,52.5,77.9c-6.6,29.9-25.1,57.4-52.5,77.9
		c-22.7,17-50.4,28.3-79.9,32.9V569.9V459.2 M625,426.9v143.1V713c97.8,0,178.9-62.1,193-143.1C803.9,488.9,722.8,426.9,625,426.9
		L625,426.9z"/>
</g>
<g>
	<path class="st0" d="M187,501.1c15.3,2.7,29.7,9.5,41.6,19.8c15,13,25,30.7,28.5,50.1c-3.4,19.4-13.5,37.1-28.5,50.1
		c-11.9,10.3-26.3,17.1-41.6,19.8V501.1z"/>
	<path d="M202,521.4c6,2.8,11.7,6.4,16.8,10.9c11.7,10.2,19.8,23.8,23,38.7c-3.3,15-11.3,28.6-23,38.7c-5.1,4.4-10.8,8.1-16.8,10.9
		V571V521.4 M172,484.8V571v86.2c50.8,0,92.9-37.4,100.3-86.2C264.9,522.2,222.8,484.8,172,484.8L172,484.8z"/>
</g>
<line class="st1" x1="271.5" y1="571.5" x2="625.5" y2="571.5"/>
<polyline class="st1" points="332.5,644.5 332,571.9 332,571.6 331.5,499 "/>
<polyline class="st1" points="393.5,665.5 393,572 393,571.5 392.5,478 "/>
<polyline class="st1" points="454.5,687.5 454,572 454,571.5 453.5,456 "/>
<polyline class="st1" points="515.5,695.5 515,572 515,571.5 514.5,448 "/>
<polyline class="st1" points="576.5,695.5 576,572 576,571.5 575.5,448 "/>
<g>
	<line class="st2" x1="714" y1="522" x2="691.5" y2="544.5"/>
	<line class="st2" x1="691.5" y1="522" x2="714" y2="544.5"/>
</g>
<g>
</g>
<g>
</g>
<g>
</g>
<g>
</g>
<g>
</g>
<g>
</g>
<g>
</g>
<g>
</g>
<g>
</g>
<g>
</g>
<g>
</g>
<g>
</g>
<g>
</g>
<g>
</g>
<g>
</g>
</svg>
